<svg width="41" height="44" fill="none" xmlns="http://www.w3.org/2000/svg"><path d="M0 43.2V13.44h5.7l.54 5.64c1.04-1.96 2.48-3.5 4.32-4.62 1.88-1.16 4.14-1.74 6.78-1.74v6.66H15.6c-1.76 0-3.34.3-4.74.9-1.36.56-2.46 1.54-3.3 2.94-.8 1.36-1.2 3.26-1.2 5.7V43.2H0ZM20.993 43.2V0h6.36v43.2h-6.36Z" fill="#fff"/><path d="M36.127 43.56c-1.2 0-2.2-.38-3-1.14-.76-.8-1.14-1.74-1.14-2.82 0-1.12.38-2.06 1.14-2.82.8-.8 1.8-1.2 3-1.2s2.18.4 2.94 1.2c.76.76 1.14 1.7 1.14 2.82 0 1.08-.38 2.02-1.14 2.82-.76.76-1.74 1.14-2.94 1.14Z" fill="#1769E5"/></svg>